#VRML V2.0 utf8
# Generated by VRML 2.0 driver of GEANT4


#---------- CAMERA
Viewpoint {
	position 0 0 314.883
}

#---------- SOLID: Crystal:0
	Shape {
		appearance Appearance {
			material Material {
				diffuseColor 0.2 0.4 0.9
				transparency 0.7
			}
		}
		geometry IndexedFaceSet {
			coord Coordinate {
				point [
					96.52 0 76.2,
					93.2312 24.9812 76.2,
					83.5888 48.26 76.2,
					68.2499 68.2499 76.2,
					48.26 83.5888 76.2,
					24.9812 93.2312 76.2,
					5.91015e-15 96.52 76.2,
					-24.9812 93.2312 76.2,
					-48.26 83.5888 76.2,
					-68.2499 68.2499 76.2,
					-83.5888 48.26 76.2,
					-93.2312 24.9812 76.2,
					-96.52 1.18203e-14 76.2,
					-93.2312 -24.9812 76.2,
					-83.5888 -48.26 76.2,
					-68.2499 -68.2499 76.2,
					-48.26 -83.5888 76.2,
					-24.9812 -93.2312 76.2,
					-1.77304e-14 -96.52 76.2,
					24.9812 -93.2312 76.2,
					48.26 -83.5888 76.2,
					68.2499 -68.2499 76.2,
					83.5888 -48.26 76.2,
					93.2312 -24.9812 76.2,
					96.52 0 -76.2,
					93.2312 24.9812 -76.2,
					83.5888 48.26 -76.2,
					68.2499 68.2499 -76.2,
					48.26 83.5888 -76.2,
					24.9812 93.2312 -76.2,
					5.91015e-15 96.52 -76.2,
					-24.9812 93.2312 -76.2,
					-48.26 83.5888 -76.2,
					-68.2499 68.2499 -76.2,
					-83.5888 48.26 -76.2,
					-93.2312 24.9812 -76.2,
					-96.52 1.18203e-14 -76.2,
					-93.2312 -24.9812 -76.2,
					-83.5888 -48.26 -76.2,
					-68.2499 -68.2499 -76.2,
					-48.26 -83.5888 -76.2,
					-24.9812 -93.2312 -76.2,
					-1.77304e-14 -96.52 -76.2,
					24.9812 -93.2312 -76.2,
					48.26 -83.5888 -76.2,
					68.2499 -68.2499 -76.2,
					83.5888 -48.26 -76.2,
					93.2312 -24.9812 -76.2,
					45.72 0 76.2,
					44.1621 11.8332 76.2,
					39.5947 22.86 76.2,
					32.3289 32.3289 76.2,
					22.86 39.5947 76.2,
					11.8332 44.1621 76.2,
					2.79954e-15 45.72 76.2,
					-11.8332 44.1621 76.2,
					-22.86 39.5947 76.2,
					-32.3289 32.3289 76.2,
					-39.5947 22.86 76.2,
					-44.1621 11.8332 76.2,
					-45.72 5.59909e-15 76.2,
					-44.1621 -11.8332 76.2,
					-39.5947 -22.86 76.2,
					-32.3289 -32.3289 76.2,
					-22.86 -39.5947 76.2,
					-11.8332 -44.1621 76.2,
					-8.39863e-15 -45.72 76.2,
					11.8332 -44.1621 76.2,
					22.86 -39.5947 76.2,
					32.3289 -32.3289 76.2,
					39.5947 -22.86 76.2,
					44.1621 -11.8332 76.2,
					45.72 0 -76.2,
					44.1621 11.8332 -76.2,
					39.5947 22.86 -76.2,
					32.3289 32.3289 -76.2,
					22.86 39.5947 -76.2,
					11.8332 44.1621 -76.2,
					2.79954e-15 45.72 -76.2,
					-11.8332 44.1621 -76.2,
					-22.86 39.5947 -76.2,
					-32.3289 32.3289 -76.2,
					-39.5947 22.86 -76.2,
					-44.1621 11.8332 -76.2,
					-45.72 5.59909e-15 -76.2,
					-44.1621 -11.8332 -76.2,
					-39.5947 -22.86 -76.2,
					-32.3289 -32.3289 -76.2,
					-22.86 -39.5947 -76.2,
					-11.8332 -44.1621 -76.2,
					-8.39863e-15 -45.72 -76.2,
					11.8332 -44.1621 -76.2,
					22.86 -39.5947 -76.2,
					32.3289 -32.3289 -76.2,
					39.5947 -22.86 -76.2,
					44.1621 -11.8332 -76.2,
				]
			}
			coordIndex [
				0, 24, 25, 1, -1,
				1, 25, 26, 2, -1,
				2, 26, 27, 3, -1,
				3, 27, 28, 4, -1,
				4, 28, 29, 5, -1,
				5, 29, 30, 6, -1,
				6, 30, 31, 7, -1,
				7, 31, 32, 8, -1,
				8, 32, 33, 9, -1,
				9, 33, 34, 10, -1,
				10, 34, 35, 11, -1,
				11, 35, 36, 12, -1,
				12, 36, 37, 13, -1,
				13, 37, 38, 14, -1,
				14, 38, 39, 15, -1,
				15, 39, 40, 16, -1,
				16, 40, 41, 17, -1,
				17, 41, 42, 18, -1,
				18, 42, 43, 19, -1,
				19, 43, 44, 20, -1,
				20, 44, 45, 21, -1,
				21, 45, 46, 22, -1,
				22, 46, 47, 23, -1,
				23, 47, 24, 0, -1,
				72, 48, 49, 73, -1,
				73, 49, 50, 74, -1,
				74, 50, 51, 75, -1,
				75, 51, 52, 76, -1,
				76, 52, 53, 77, -1,
				77, 53, 54, 78, -1,
				78, 54, 55, 79, -1,
				79, 55, 56, 80, -1,
				80, 56, 57, 81, -1,
				81, 57, 58, 82, -1,
				82, 58, 59, 83, -1,
				83, 59, 60, 84, -1,
				84, 60, 61, 85, -1,
				85, 61, 62, 86, -1,
				86, 62, 63, 87, -1,
				87, 63, 64, 88, -1,
				88, 64, 65, 89, -1,
				89, 65, 66, 90, -1,
				90, 66, 67, 91, -1,
				91, 67, 68, 92, -1,
				92, 68, 69, 93, -1,
				93, 69, 70, 94, -1,
				94, 70, 71, 95, -1,
				95, 71, 48, 72, -1,
				48, 0, 1, 49, -1,
				49, 1, 2, 50, -1,
				50, 2, 3, 51, -1,
				51, 3, 4, 52, -1,
				52, 4, 5, 53, -1,
				53, 5, 6, 54, -1,
				54, 6, 7, 55, -1,
				55, 7, 8, 56, -1,
				56, 8, 9, 57, -1,
				57, 9, 10, 58, -1,
				58, 10, 11, 59, -1,
				59, 11, 12, 60, -1,
				60, 12, 13, 61, -1,
				61, 13, 14, 62, -1,
				62, 14, 15, 63, -1,
				63, 15, 16, 64, -1,
				64, 16, 17, 65, -1,
				65, 17, 18, 66, -1,
				66, 18, 19, 67, -1,
				67, 19, 20, 68, -1,
				68, 20, 21, 69, -1,
				69, 21, 22, 70, -1,
				70, 22, 23, 71, -1,
				71, 23, 0, 48, -1,
				24, 72, 73, 25, -1,
				25, 73, 74, 26, -1,
				26, 74, 75, 27, -1,
				27, 75, 76, 28, -1,
				28, 76, 77, 29, -1,
				29, 77, 78, 30, -1,
				30, 78, 79, 31, -1,
				31, 79, 80, 32, -1,
				32, 80, 81, 33, -1,
				33, 81, 82, 34, -1,
				34, 82, 83, 35, -1,
				35, 83, 84, 36, -1,
				36, 84, 85, 37, -1,
				37, 85, 86, 38, -1,
				38, 86, 87, 39, -1,
				39, 87, 88, 40, -1,
				40, 88, 89, 41, -1,
				41, 89, 90, 42, -1,
				42, 90, 91, 43, -1,
				43, 91, 92, 44, -1,
				44, 92, 93, 45, -1,
				45, 93, 94, 46, -1,
				46, 94, 95, 47, -1,
				47, 95, 72, 24, -1,
			]
			solid FALSE
		}
	}
#---------- SOLID: AlInnerLining:0
	Shape {
		appearance Appearance {
			material Material {
				diffuseColor 0.7 0.7 0.7
				transparency 0.7
			}
		}
		geometry IndexedFaceSet {
			coord Coordinate {
				point [
					45.22 0 76.2,
					43.6792 11.7038 76.2,
					39.1617 22.61 76.2,
					31.9754 31.9754 76.2,
					22.61 39.1617 76.2,
					11.7038 43.6792 76.2,
					2.76893e-15 45.22 76.2,
					-11.7038 43.6792 76.2,
					-22.61 39.1617 76.2,
					-31.9754 31.9754 76.2,
					-39.1617 22.61 76.2,
					-43.6792 11.7038 76.2,
					-45.22 5.53785e-15 76.2,
					-43.6792 -11.7038 76.2,
					-39.1617 -22.61 76.2,
					-31.9754 -31.9754 76.2,
					-22.61 -39.1617 76.2,
					-11.7038 -43.6792 76.2,
					-8.30678e-15 -45.22 76.2,
					11.7038 -43.6792 76.2,
					22.61 -39.1617 76.2,
					31.9754 -31.9754 76.2,
					39.1617 -22.61 76.2,
					43.6792 -11.7038 76.2,
					45.22 0 -76.2,
					43.6792 11.7038 -76.2,
					39.1617 22.61 -76.2,
					31.9754 31.9754 -76.2,
					22.61 39.1617 -76.2,
					11.7038 43.6792 -76.2,
					2.76893e-15 45.22 -76.2,
					-11.7038 43.6792 -76.2,
					-22.61 39.1617 -76.2,
					-31.9754 31.9754 -76.2,
					-39.1617 22.61 -76.2,
					-43.6792 11.7038 -76.2,
					-45.22 5.53785e-15 -76.2,
					-43.6792 -11.7038 -76.2,
					-39.1617 -22.61 -76.2,
					-31.9754 -31.9754 -76.2,
					-22.61 -39.1617 -76.2,
					-11.7038 -43.6792 -76.2,
					-8.30678e-15 -45.22 -76.2,
					11.7038 -43.6792 -76.2,
					22.61 -39.1617 -76.2,
					31.9754 -31.9754 -76.2,
					39.1617 -22.61 -76.2,
					43.6792 -11.7038 -76.2,
					44.82 0 76.2,
					43.2928 11.6003 76.2,
					38.8153 22.41 76.2,
					31.6925 31.6925 76.2,
					22.41 38.8153 76.2,
					11.6003 43.2928 76.2,
					2.74443e-15 44.82 76.2,
					-11.6003 43.2928 76.2,
					-22.41 38.8153 76.2,
					-31.6925 31.6925 76.2,
					-38.8153 22.41 76.2,
					-43.2928 11.6003 76.2,
					-44.82 5.48887e-15 76.2,
					-43.2928 -11.6003 76.2,
					-38.8153 -22.41 76.2,
					-31.6925 -31.6925 76.2,
					-22.41 -38.8153 76.2,
					-11.6003 -43.2928 76.2,
					-8.2333e-15 -44.82 76.2,
					11.6003 -43.2928 76.2,
					22.41 -38.8153 76.2,
					31.6925 -31.6925 76.2,
					38.8153 -22.41 76.2,
					43.2928 -11.6003 76.2,
					44.82 0 -76.2,
					43.2928 11.6003 -76.2,
					38.8153 22.41 -76.2,
					31.6925 31.6925 -76.2,
					22.41 38.8153 -76.2,
					11.6003 43.2928 -76.2,
					2.74443e-15 44.82 -76.2,
					-11.6003 43.2928 -76.2,
					-22.41 38.8153 -76.2,
					-31.6925 31.6925 -76.2,
					-38.8153 22.41 -76.2,
					-43.2928 11.6003 -76.2,
					-44.82 5.48887e-15 -76.2,
					-43.2928 -11.6003 -76.2,
					-38.8153 -22.41 -76.2,
					-31.6925 -31.6925 -76.2,
					-22.41 -38.8153 -76.2,
					-11.6003 -43.2928 -76.2,
					-8.2333e-15 -44.82 -76.2,
					11.6003 -43.2928 -76.2,
					22.41 -38.8153 -76.2,
					31.6925 -31.6925 -76.2,
					38.8153 -22.41 -76.2,
					43.2928 -11.6003 -76.2,
				]
			}
			coordIndex [
				0, 24, 25, 1, -1,
				1, 25, 26, 2, -1,
				2, 26, 27, 3, -1,
				3, 27, 28, 4, -1,
				4, 28, 29, 5, -1,
				5, 29, 30, 6, -1,
				6, 30, 31, 7, -1,
				7, 31, 32, 8, -1,
				8, 32, 33, 9, -1,
				9, 33, 34, 10, -1,
				10, 34, 35, 11, -1,
				11, 35, 36, 12, -1,
				12, 36, 37, 13, -1,
				13, 37, 38, 14, -1,
				14, 38, 39, 15, -1,
				15, 39, 40, 16, -1,
				16, 40, 41, 17, -1,
				17, 41, 42, 18, -1,
				18, 42, 43, 19, -1,
				19, 43, 44, 20, -1,
				20, 44, 45, 21, -1,
				21, 45, 46, 22, -1,
				22, 46, 47, 23, -1,
				23, 47, 24, 0, -1,
				72, 48, 49, 73, -1,
				73, 49, 50, 74, -1,
				74, 50, 51, 75, -1,
				75, 51, 52, 76, -1,
				76, 52, 53, 77, -1,
				77, 53, 54, 78, -1,
				78, 54, 55, 79, -1,
				79, 55, 56, 80, -1,
				80, 56, 57, 81, -1,
				81, 57, 58, 82, -1,
				82, 58, 59, 83, -1,
				83, 59, 60, 84, -1,
				84, 60, 61, 85, -1,
				85, 61, 62, 86, -1,
				86, 62, 63, 87, -1,
				87, 63, 64, 88, -1,
				88, 64, 65, 89, -1,
				89, 65, 66, 90, -1,
				90, 66, 67, 91, -1,
				91, 67, 68, 92, -1,
				92, 68, 69, 93, -1,
				93, 69, 70, 94, -1,
				94, 70, 71, 95, -1,
				95, 71, 48, 72, -1,
				48, 0, 1, 49, -1,
				49, 1, 2, 50, -1,
				50, 2, 3, 51, -1,
				51, 3, 4, 52, -1,
				52, 4, 5, 53, -1,
				53, 5, 6, 54, -1,
				54, 6, 7, 55, -1,
				55, 7, 8, 56, -1,
				56, 8, 9, 57, -1,
				57, 9, 10, 58, -1,
				58, 10, 11, 59, -1,
				59, 11, 12, 60, -1,
				60, 12, 13, 61, -1,
				61, 13, 14, 62, -1,
				62, 14, 15, 63, -1,
				63, 15, 16, 64, -1,
				64, 16, 17, 65, -1,
				65, 17, 18, 66, -1,
				66, 18, 19, 67, -1,
				67, 19, 20, 68, -1,
				68, 20, 21, 69, -1,
				69, 21, 22, 70, -1,
				70, 22, 23, 71, -1,
				71, 23, 0, 48, -1,
				24, 72, 73, 25, -1,
				25, 73, 74, 26, -1,
				26, 74, 75, 27, -1,
				27, 75, 76, 28, -1,
				28, 76, 77, 29, -1,
				29, 77, 78, 30, -1,
				30, 78, 79, 31, -1,
				31, 79, 80, 32, -1,
				32, 80, 81, 33, -1,
				33, 81, 82, 34, -1,
				34, 82, 83, 35, -1,
				35, 83, 84, 36, -1,
				36, 84, 85, 37, -1,
				37, 85, 86, 38, -1,
				38, 86, 87, 39, -1,
				39, 87, 88, 40, -1,
				40, 88, 89, 41, -1,
				41, 89, 90, 42, -1,
				42, 90, 91, 43, -1,
				43, 91, 92, 44, -1,
				44, 92, 93, 45, -1,
				45, 93, 94, 46, -1,
				46, 94, 95, 47, -1,
				47, 95, 72, 24, -1,
			]
			solid FALSE
		}
	}
#---------- SOLID: AlOuterLining:0
	Shape {
		appearance Appearance {
			material Material {
				diffuseColor 0.7 0.7 0.7
				transparency 0.7
			}
		}
		geometry IndexedFaceSet {
			coord Coordinate {
				point [
					97.42 0 76.2,
					94.1005 25.2142 76.2,
					84.3682 48.71 76.2,
					68.8863 68.8863 76.2,
					48.71 84.3682 76.2,
					25.2142 94.1005 76.2,
					5.96525e-15 97.42 76.2,
					-25.2142 94.1005 76.2,
					-48.71 84.3682 76.2,
					-68.8863 68.8863 76.2,
					-84.3682 48.71 76.2,
					-94.1005 25.2142 76.2,
					-97.42 1.19305e-14 76.2,
					-94.1005 -25.2142 76.2,
					-84.3682 -48.71 76.2,
					-68.8863 -68.8863 76.2,
					-48.71 -84.3682 76.2,
					-25.2142 -94.1005 76.2,
					-1.78958e-14 -97.42 76.2,
					25.2142 -94.1005 76.2,
					48.71 -84.3682 76.2,
					68.8863 -68.8863 76.2,
					84.3682 -48.71 76.2,
					94.1005 -25.2142 76.2,
					97.42 0 -76.2,
					94.1005 25.2142 -76.2,
					84.3682 48.71 -76.2,
					68.8863 68.8863 -76.2,
					48.71 84.3682 -76.2,
					25.2142 94.1005 -76.2,
					5.96525e-15 97.42 -76.2,
					-25.2142 94.1005 -76.2,
					-48.71 84.3682 -76.2,
					-68.8863 68.8863 -76.2,
					-84.3682 48.71 -76.2,
					-94.1005 25.2142 -76.2,
					-97.42 1.19305e-14 -76.2,
					-94.1005 -25.2142 -76.2,
					-84.3682 -48.71 -76.2,
					-68.8863 -68.8863 -76.2,
					-48.71 -84.3682 -76.2,
					-25.2142 -94.1005 -76.2,
					-1.78958e-14 -97.42 -76.2,
					25.2142 -94.1005 -76.2,
					48.71 -84.3682 -76.2,
					68.8863 -68.8863 -76.2,
					84.3682 -48.71 -76.2,
					94.1005 -25.2142 -76.2,
					97.02 0 76.2,
					93.7141 25.1106 76.2,
					84.0218 48.51 76.2,
					68.6035 68.6035 76.2,
					48.51 84.0218 76.2,
					25.1106 93.7141 76.2,
					5.94076e-15 97.02 76.2,
					-25.1106 93.7141 76.2,
					-48.51 84.0218 76.2,
					-68.6035 68.6035 76.2,
					-84.0218 48.51 76.2,
					-93.7141 25.1106 76.2,
					-97.02 1.18815e-14 76.2,
					-93.7141 -25.1106 76.2,
					-84.0218 -48.51 76.2,
					-68.6035 -68.6035 76.2,
					-48.51 -84.0218 76.2,
					-25.1106 -93.7141 76.2,
					-1.78223e-14 -97.02 76.2,
					25.1106 -93.7141 76.2,
					48.51 -84.0218 76.2,
					68.6035 -68.6035 76.2,
					84.0218 -48.51 76.2,
					93.7141 -25.1106 76.2,
					97.02 0 -76.2,
					93.7141 25.1106 -76.2,
					84.0218 48.51 -76.2,
					68.6035 68.6035 -76.2,
					48.51 84.0218 -76.2,
					25.1106 93.7141 -76.2,
					5.94076e-15 97.02 -76.2,
					-25.1106 93.7141 -76.2,
					-48.51 84.0218 -76.2,
					-68.6035 68.6035 -76.2,
					-84.0218 48.51 -76.2,
					-93.7141 25.1106 -76.2,
					-97.02 1.18815e-14 -76.2,
					-93.7141 -25.1106 -76.2,
					-84.0218 -48.51 -76.2,
					-68.6035 -68.6035 -76.2,
					-48.51 -84.0218 -76.2,
					-25.1106 -93.7141 -76.2,
					-1.78223e-14 -97.02 -76.2,
					25.1106 -93.7141 -76.2,
					48.51 -84.0218 -76.2,
					68.6035 -68.6035 -76.2,
					84.0218 -48.51 -76.2,
					93.7141 -25.1106 -76.2,
				]
			}
			coordIndex [
				0, 24, 25, 1, -1,
				1, 25, 26, 2, -1,
				2, 26, 27, 3, -1,
				3, 27, 28, 4, -1,
				4, 28, 29, 5, -1,
				5, 29, 30, 6, -1,
				6, 30, 31, 7, -1,
				7, 31, 32, 8, -1,
				8, 32, 33, 9, -1,
				9, 33, 34, 10, -1,
				10, 34, 35, 11, -1,
				11, 35, 36, 12, -1,
				12, 36, 37, 13, -1,
				13, 37, 38, 14, -1,
				14, 38, 39, 15, -1,
				15, 39, 40, 16, -1,
				16, 40, 41, 17, -1,
				17, 41, 42, 18, -1,
				18, 42, 43, 19, -1,
				19, 43, 44, 20, -1,
				20, 44, 45, 21, -1,
				21, 45, 46, 22, -1,
				22, 46, 47, 23, -1,
				23, 47, 24, 0, -1,
				72, 48, 49, 73, -1,
				73, 49, 50, 74, -1,
				74, 50, 51, 75, -1,
				75, 51, 52, 76, -1,
				76, 52, 53, 77, -1,
				77, 53, 54, 78, -1,
				78, 54, 55, 79, -1,
				79, 55, 56, 80, -1,
				80, 56, 57, 81, -1,
				81, 57, 58, 82, -1,
				82, 58, 59, 83, -1,
				83, 59, 60, 84, -1,
				84, 60, 61, 85, -1,
				85, 61, 62, 86, -1,
				86, 62, 63, 87, -1,
				87, 63, 64, 88, -1,
				88, 64, 65, 89, -1,
				89, 65, 66, 90, -1,
				90, 66, 67, 91, -1,
				91, 67, 68, 92, -1,
				92, 68, 69, 93, -1,
				93, 69, 70, 94, -1,
				94, 70, 71, 95, -1,
				95, 71, 48, 72, -1,
				48, 0, 1, 49, -1,
				49, 1, 2, 50, -1,
				50, 2, 3, 51, -1,
				51, 3, 4, 52, -1,
				52, 4, 5, 53, -1,
				53, 5, 6, 54, -1,
				54, 6, 7, 55, -1,
				55, 7, 8, 56, -1,
				56, 8, 9, 57, -1,
				57, 9, 10, 58, -1,
				58, 10, 11, 59, -1,
				59, 11, 12, 60, -1,
				60, 12, 13, 61, -1,
				61, 13, 14, 62, -1,
				62, 14, 15, 63, -1,
				63, 15, 16, 64, -1,
				64, 16, 17, 65, -1,
				65, 17, 18, 66, -1,
				66, 18, 19, 67, -1,
				67, 19, 20, 68, -1,
				68, 20, 21, 69, -1,
				69, 21, 22, 70, -1,
				70, 22, 23, 71, -1,
				71, 23, 0, 48, -1,
				24, 72, 73, 25, -1,
				25, 73, 74, 26, -1,
				26, 74, 75, 27, -1,
				27, 75, 76, 28, -1,
				28, 76, 77, 29, -1,
				29, 77, 78, 30, -1,
				30, 78, 79, 31, -1,
				31, 79, 80, 32, -1,
				32, 80, 81, 33, -1,
				33, 81, 82, 34, -1,
				34, 82, 83, 35, -1,
				35, 83, 84, 36, -1,
				36, 84, 85, 37, -1,
				37, 85, 86, 38, -1,
				38, 86, 87, 39, -1,
				39, 87, 88, 40, -1,
				40, 88, 89, 41, -1,
				41, 89, 90, 42, -1,
				42, 90, 91, 43, -1,
				43, 91, 92, 44, -1,
				44, 92, 93, 45, -1,
				45, 93, 94, 46, -1,
				46, 94, 95, 47, -1,
				47, 95, 72, 24, -1,
			]
			solid FALSE
		}
	}
#---------- SOLID: PlasticDisk:0
	Shape {
		appearance Appearance {
			material Material {
				diffuseColor 1 0.4 0.8
				transparency 0.7
			}
		}
		geometry IndexedFaceSet {
			coord Coordinate {
				point [
					10 0 2.5,
					9.65926 2.58819 2.5,
					8.66025 5 2.5,
					7.07107 7.07107 2.5,
					5 8.66025 2.5,
					2.58819 9.65926 2.5,
					6.12323e-16 10 2.5,
					-2.58819 9.65926 2.5,
					-5 8.66025 2.5,
					-7.07107 7.07107 2.5,
					-8.66025 5 2.5,
					-9.65926 2.58819 2.5,
					-10 1.22465e-15 2.5,
					-9.65926 -2.58819 2.5,
					-8.66025 -5 2.5,
					-7.07107 -7.07107 2.5,
					-5 -8.66025 2.5,
					-2.58819 -9.65926 2.5,
					-1.83697e-15 -10 2.5,
					2.58819 -9.65926 2.5,
					5 -8.66025 2.5,
					7.07107 -7.07107 2.5,
					8.66025 -5 2.5,
					9.65926 -2.58819 2.5,
					10 0 -2.5,
					9.65926 2.58819 -2.5,
					8.66025 5 -2.5,
					7.07107 7.07107 -2.5,
					5 8.66025 -2.5,
					2.58819 9.65926 -2.5,
					6.12323e-16 10 -2.5,
					-2.58819 9.65926 -2.5,
					-5 8.66025 -2.5,
					-7.07107 7.07107 -2.5,
					-8.66025 5 -2.5,
					-9.65926 2.58819 -2.5,
					-10 1.22465e-15 -2.5,
					-9.65926 -2.58819 -2.5,
					-8.66025 -5 -2.5,
					-7.07107 -7.07107 -2.5,
					-5 -8.66025 -2.5,
					-2.58819 -9.65926 -2.5,
					-1.83697e-15 -10 -2.5,
					2.58819 -9.65926 -2.5,
					5 -8.66025 -2.5,
					7.07107 -7.07107 -2.5,
					8.66025 -5 -2.5,
					9.65926 -2.58819 -2.5,
					0 0 2.5,
					0 0 -2.5,
				]
			}
			coordIndex [
				0, 24, 25, 1, -1,
				1, 25, 26, 2, -1,
				2, 26, 27, 3, -1,
				3, 27, 28, 4, -1,
				4, 28, 29, 5, -1,
				5, 29, 30, 6, -1,
				6, 30, 31, 7, -1,
				7, 31, 32, 8, -1,
				8, 32, 33, 9, -1,
				9, 33, 34, 10, -1,
				10, 34, 35, 11, -1,
				11, 35, 36, 12, -1,
				12, 36, 37, 13, -1,
				13, 37, 38, 14, -1,
				14, 38, 39, 15, -1,
				15, 39, 40, 16, -1,
				16, 40, 41, 17, -1,
				17, 41, 42, 18, -1,
				18, 42, 43, 19, -1,
				19, 43, 44, 20, -1,
				20, 44, 45, 21, -1,
				21, 45, 46, 22, -1,
				22, 46, 47, 23, -1,
				23, 47, 24, 0, -1,
				48, 0, 1, -1,
				48, 1, 2, -1,
				48, 2, 3, -1,
				48, 3, 4, -1,
				48, 4, 5, -1,
				48, 5, 6, -1,
				48, 6, 7, -1,
				48, 7, 8, -1,
				48, 8, 9, -1,
				48, 9, 10, -1,
				48, 10, 11, -1,
				48, 11, 12, -1,
				48, 12, 13, -1,
				48, 13, 14, -1,
				48, 14, 15, -1,
				48, 15, 16, -1,
				48, 16, 17, -1,
				48, 17, 18, -1,
				48, 18, 19, -1,
				48, 19, 20, -1,
				48, 20, 21, -1,
				48, 21, 22, -1,
				48, 22, 23, -1,
				48, 23, 0, -1,
				24, 49, 25, -1,
				25, 49, 26, -1,
				26, 49, 27, -1,
				27, 49, 28, -1,
				28, 49, 29, -1,
				29, 49, 30, -1,
				30, 49, 31, -1,
				31, 49, 32, -1,
				32, 49, 33, -1,
				33, 49, 34, -1,
				34, 49, 35, -1,
				35, 49, 36, -1,
				36, 49, 37, -1,
				37, 49, 38, -1,
				38, 49, 39, -1,
				39, 49, 40, -1,
				40, 49, 41, -1,
				41, 49, 42, -1,
				42, 49, 43, -1,
				43, 49, 44, -1,
				44, 49, 45, -1,
				45, 49, 46, -1,
				46, 49, 47, -1,
				47, 49, 24, -1,
			]
			solid FALSE
		}
	}
#End of file.
